<svg id="Layer_5" enable-background="new 0 0 64 64" height="512" viewBox="0 0 64 64" width="512" xmlns="http://www.w3.org/2000/svg"><g><path d="m52 14v-13h-1.343c-3.671 0-6.657 2.986-6.657 6.657 0 1.778.692 3.449 1.95 4.707l.05 6.636v.758c0 1.053.427 2.084 1.172 2.828l.828.828v8.751c0 .51-.484.9-.984.822l-10.202-1.855-.371-1.483c1.322-.886 2.362-2.156 2.969-3.648h.588c2.206 0 4-1.794 4-4 0-.855-.275-1.645-.734-2.296l.01-.021c.474-.949.724-2.008.724-3.066 0-2.612-1.452-4.962-3.789-6.131l-.222-.111c-.061-2.422-2.04-4.376-4.476-4.376h-6.513c-3.717 0-6.766 2.911-6.987 6.573l-.195.195c-1.172 1.172-1.818 2.73-1.818 4.387 0 .669.107 1.329.318 1.962l.273.818c-.367.605-.591 1.307-.591 2.065 0 2.206 1.794 4 4 4h.589c.606 1.492 1.647 2.762 2.969 3.648l-.371 1.483-10.201 1.854c-.509.092-.986-.31-.986-.82v-8.751l.828-.828c.745-.744 1.172-1.775 1.172-2.828v-.758-1-9.026c1.207-.913 2-2.347 2-3.974v-4h-2v4c0 1.654-1.346 3-3 3s-3-1.346-3-3v-4h-2v4c0 1.627.793 3.061 2 3.974v5.026c-2.206 0-4 1.794-4 4v15.172c0 2.061.836 4.078 2.293 5.535s3.475 2.293 5.535 2.293h6.172v2.184c-1.161.414-2 1.514-2 2.816v4.713c-3.863 1.296-6 3.153-6 5.287 0 4.547 9.274 7 18 7s18-2.453 18-7c0-2.134-2.137-3.992-6-5.287v-4.713c0-1.302-.839-2.402-2-2.816v-2.184h6.172c2.061 0 4.078-.836 5.535-2.293s2.293-3.475 2.293-5.535v-15.172c0-2.206-1.794-4-4-4zm-2-10.954v10.954c-.732 0-1.409.212-2 .556v-2.97l-.636-.636c-.88-.88-1.364-2.049-1.364-3.293 0-2.344 1.742-4.291 4-4.611zm-2 14.954c0-1.103.897-2 2-2h2c1.103 0 2 .897 2 2v4h-4.586l-.828-.828c-.372-.372-.586-.888-.586-1.414v-.758zm-8 6h-.069c.041-.328.069-.661.069-1v-3c1.103 0 2 .897 2 2s-.897 2-2 2zm-16 0c-1.103 0-2-.897-2-2s.897-2 2-2v3c0 .339.028.672.069 1zm.016-6h-.016c-.649 0-1.253.17-1.795.445-.134-.417-.205-.85-.205-1.29 0-1.123.438-2.179 1.231-2.973l.769-.768v-.414c0-2.757 2.243-5 5-5h6.513c1.371 0 2.487 1.116 2.487 2.487 0 1.072-.684 2.02-1.699 2.358l-.616.205.631 1.898.617-.206c1.184-.395 2.111-1.25 2.624-2.325 1.51.865 2.443 2.444 2.443 4.2 0 .599-.118 1.197-.335 1.756-.509-.233-1.069-.373-1.665-.373v-2h-4.528c-2.771 0-5.546-.655-8.024-1.895l-.448-.223-.447.224c-1.503.752-2.453 2.231-2.537 3.894zm1.984 5v-4.764c0-.842.395-1.611 1.054-2.101 2.625 1.221 5.523 1.865 8.418 1.865h2.528v5c0 3.309-2.691 6-6 6s-6-2.691-6-6zm6 8c.914 0 1.789-.162 2.608-.445l.285 1.138-2.893 2.893-2.893-2.893.285-1.138c.819.283 1.694.445 2.608.445zm-18-21.101c.323.066.658.101 1 .101s.677-.035 1-.101v4.657c-.591-.344-1.268-.556-2-.556zm-2 6.101h2c1.103 0 2 .897 2 2v1 .758c0 .526-.214 1.042-.586 1.414l-.828.828h-4.586v-4c0-1.103.897-2 2-2zm30 30v8c0 .552-.448 1-1 1h-1v-10h1c.552 0 1 .448 1 1zm-4 9h-12v-10h12zm-16-9c0-.552.448-1 1-1h1v10h-1c-.552 0-1-.448-1-1zm26 10c0 2.088-6.087 5-16 5s-16-2.912-16-5c0-1.056 1.536-2.249 4-3.175v1.175c0 1.654 1.346 3 3 3h18c1.654 0 3-1.346 3-3v-1.175c2.464.926 4 2.119 4 3.175zm4.293-18.707c-1.085 1.085-2.587 1.707-4.121 1.707h-8.172v4h-16v-4h-8.172c-1.534 0-3.036-.622-4.121-1.707s-1.707-2.587-1.707-4.121v-9.172h4v8.165c0 1.732 1.619 3.113 3.342 2.789l10.321-1.877 4.337 4.337 4.337-4.337 10.323 1.878c.166.03.336.045.505.045 1.564 0 2.835-1.271 2.835-2.835v-8.165h4v9.172c0 1.534-.622 3.036-1.707 4.121z"/><path d="m14 1h2v5h-2z"/></g></svg>