<svg height="480pt" viewBox="0 0 480 480" width="480pt" xmlns="http://www.w3.org/2000/svg"><path d="m413.992188 145.351562c4.445312-2.125 7.824218-5.980468 9.351562-10.664062 9.800781-32.75-95.917969-72.414062-134.398438-85.664062 6.644532-10.527344 6.566407-23.960938-.203124-34.410157-6.769532-10.449219-18.996094-16.011719-31.324219-14.25-12.324219 1.761719-22.5 10.523438-26.074219 22.453125-.789062 2.796875-1.199219 5.6875-1.214844 8.589844-39.320312-10.070312-149.394531-35.078125-159.34375-2.398438-9.898437 33.230469 98.199219 75.335938 163.613282 94.992188 50.691406 15.199219 107.953124 27.121094 145.898437 27.121094 11.523437.6875 23.054687-1.285156 33.695313-5.769532zm-167.289063-117.9375c2.199219-7.308593 9.253906-12.046874 16.851563-11.320312 7.597656.730469 13.625 6.722656 14.390624 14.316406.769532 7.59375-3.933593 14.675782-11.234374 16.910156-7.296876 2.234376-15.160157-.996093-18.773438-7.71875-2.027344-3.738281-2.46875-8.128906-1.234375-12.195312zm-7.6875 81.242188c-101.648437-30.503906-153.535156-65.144531-152.910156-74.976562 3.613281-6.503907 51.734375-11.023438 149.183593 15.640624 4.054688 6.398438 10.265626 11.132813 17.511719 13.34375 3.003907.894532 6.125 1.347657 9.261719 1.335938 4.453125-.019531 8.855469-.976562 12.914062-2.808594 96 31.34375 133.597657 61.542969 133.0625 68.800782-4.949218 8.792968-67.375 9.144531-169.023437-21.335938zm0 0"/><path d="m456 224h-37.246094c-1.039062-1.089844-2.15625-2.101562-3.339844-3.03125l-.558593-.433594c-12-9.296875-34.742188-15.816406-61.335938-20.253906 4.152344-4.40625 6.46875-10.226562 6.480469-16.28125 0-13.253906-10.746094-24-24-24s-24 10.746094-24 24c.027344 3.996094 1.0625 7.921875 3.015625 11.40625-15.199219-1.414062-30.511719-2.328125-45-2.847656l-2.480469-.09375c-4.078125-.140625-8.078125-.242188-12-.304688h-2.0625c-4.625-.121094-9.144531-.160156-13.472656-.160156s-8.847656 0-13.503906.121094h-2.0625c-3.90625.074218-7.90625.175781-12 .304687l-2.480469.09375c-54.402344 1.953125-120.921875 9.464844-144.800781 28l-.558594.433594c-1.1875.933594-2.304688 1.953125-3.347656 3.046875h-37.246094c-13.253906 0-24 10.746094-24 24s10.746094 24 24 24h32v72c.066406 57.410156 46.589844 103.933594 104 104h160c57.410156-.066406 103.933594-46.589844 104-104v-72h32c13.253906 0 24-10.746094 24-24s-10.746094-24-24-24zm-120-48c4.417969 0 8 3.582031 8 8s-3.582031 8-8 8-8-3.582031-8-8 3.582031-8 8-8zm61.816406 67.503906c-31.710937-12.054687-91.585937-19.503906-157.816406-19.503906s-126.105469 7.449219-157.816406 19.503906c-6.0625-2.703125-9.597656-5.304687-10.160156-7.480468l.128906-.214844c1.917968-3.5625 9.078125-7.535156 20.855468-11.351563l2.617188-.800781c1.34375-.410156 2.742188-.816406 4.191406-1.214844 1.910156-.519531 3.910156-1.050781 6.023438-1.601562l2.082031-.511719c2.765625-.65625 5.699219-1.296875 8.796875-1.929687l.839844-.175782c3.335937-.679687 6.867187-1.335937 10.554687-1.964844l.640625-.113281c3.628906-.625 7.460938-1.214843 11.429688-1.785156l1.207031-.175781c3.714844-.527344 7.625-1.023438 11.625-1.496094l2.304687-.28125c3.65625-.414062 7.496094-.796875 11.382813-1.167969 1.234375-.117187 2.402344-.246093 3.671875-.359375 3.5625-.3125 7.289062-.589844 11.023438-.863281 1.679687-.121094 3.304687-.253906 5.027343-.367187 3.527344-.234376 7.199219-.417969 10.894531-.601563 2.03125-.101563 4-.230469 6.070313-.320313 3.855469-.160156 7.875-.269531 11.882813-.382812 2-.054688 3.917968-.136719 5.957031-.183594 6.066406-.089844 12.320312-.160156 18.769531-.160156s12.71875.070312 18.824219.199219c2.046875.046875 4 .128906 5.984375.183593 4 .113282 8 .226563 11.878906.394532 2.097656.085937 4.089844.214844 6.144531.320312 3.65625.183594 7.320313.367188 10.824219.589844 1.808594.121094 3.527344.265625 5.304688.390625 3.613281.265625 7.199218.539063 10.671874.800781 1.464844.128906 2.855469.28125 4.289063.417969 3.644531.351563 7.246094.703125 10.6875 1.09375l3.199219.394531c3.640625.429688 7.199218.878906 10.605468 1.359375l2.472657.367188c3.449219.496093 6.792969 1.015625 9.984375 1.601562l2.402344.414063c2.972656.519531 5.847656 1.058594 8.582031 1.601562 1.089843.214844 2.136719.4375 3.199219.664063 2.152343.445312 4.242187.902343 6.242187 1.367187 1.710937.40625 3.367187.800782 4.96875 1.222656 1.015625.257813 2.023437.511719 3 .800782 16.4375 4.472656 26.320313 9.359375 28.628906 13.648437l.105469.167969c-.585938 2.183594-4.097656 4.800781-10.183594 7.503906zm-288.046875 8.496094c42.867188-8.5625 86.519531-12.585938 130.230469-12 43.710938-.585938 87.363281 3.4375 130.230469 12-42.867188 8.5625-86.519531 12.585938-130.230469 12-43.710938.585938-87.363281-3.4375-130.230469-12zm-85.769531 4c-4.417969 0-8-3.582031-8-8s3.582031-8 8-8h32v16zm296 176h-160c-43.917969-.078125-81.0625-32.496094-87.078125-76 15.285156 5.484375 31.074219 9.457031 47.132813 11.863281l2.609374-15.792969c-17.464843-2.21875-34.523437-6.914062-50.664062-13.949218v-14.402344c9.839844 3.773438 19.976562 6.714844 30.304688 8.800781l3.390624-15.640625c-11.652343-2.113281-22.976562-5.730468-33.695312-10.765625v-50.226562c2.214844 1.210937 4.613281 2.367187 7.199219 3.464843l.082031.046876.183594.066406c24.722656 8.796875 50.503906 14.257812 76.671875 16.246094h.320312c2.484375.261718 4.980469.511718 7.488281.753906 20.359376 1.976562 42.597657 3.199218 65.789063 3.429687 3.511719.105469 6.960937.105469 10.265625.105469s6.753906 0 10.257812-.070312c23.199219-.273438 45.429688-1.457032 65.789063-3.433594 2.507813-.238282 5.003906-.492188 7.488281-.753906h.320313c26.164062-1.984376 51.949219-7.449219 76.671875-16.246094l.183594-.0625.082031-.050782c2.589843-1.101562 4.992187-2.257812 7.199219-3.460937v50.285156c-15.519532 8.050781-48 14.960938-88.746094 18.738281l1.488281 15.925782c23.410156-2.167969 62.402344-7.109375 87.257813-17.136719v14.402344c-16.136719 7.046875-33.199219 11.753906-50.664063 13.984375l2.609375 15.789062c16.066406-2.417968 31.855469-6.410156 47.140625-11.910156-6.015625 43.503906-43.160156 75.921875-87.078125 76zm136-176h-32v-16h32c4.417969 0 8 3.582031 8 8s-3.582031 8-8 8zm0 0"/><path d="m149.433594 114.457031c-11.902344 5.835938-16.816406 20.21875-10.976563 32.117188 5.839844 11.902343 20.222657 16.816406 32.121094 10.972656 11.898437-5.839844 16.808594-20.222656 10.964844-32.121094-5.839844-11.894531-20.214844-16.804687-32.109375-10.96875zm14.085937 28.742188c-3.964843 1.941406-8.757812.300781-10.699219-3.664063-1.945312-3.96875-.304687-8.757812 3.660157-10.703125 3.964843-1.945312 8.757812-.308593 10.703125 3.65625.9375 1.90625 1.078125 4.105469.390625 6.117188-.6875 2.007812-2.148438 3.660156-4.054688 4.59375zm0 0"/><path d="m24 40v40c.027344 22.082031 17.917969 39.972656 40 40h8v-16h-8c-13.253906 0-24-10.746094-24-24v-40c-.027344-22.082031-17.917969-39.9726562-40-40v16c13.253906 0 24 10.746094 24 24zm0 0"/><path d="m128 184h8v-16h-8c-13.253906 0-24-10.746094-24-24v-40c-.027344-22.082031-17.917969-39.972656-40-40v16c13.253906 0 24 10.746094 24 24v40c.027344 22.082031 17.917969 39.972656 40 40zm0 0"/><path d="m440 112v40c0 13.253906-10.746094 24-24 24h-8v16h8c22.082031-.027344 39.972656-17.917969 40-40v-40c0-13.253906 10.746094-24 24-24v-16c-22.082031.027344-39.972656 17.917969-40 40zm0 0"/><path d="m424 48c0-13.253906 10.746094-24 24-24v-16c-22.082031.027344-39.972656 17.917969-40 40v40h16zm0 0"/><path d="m216 160c0 13.253906 10.746094 24 24 24s24-10.746094 24-24-10.746094-24-24-24-24 10.746094-24 24zm32 0c0 4.417969-3.582031 8-8 8s-8-3.582031-8-8 3.582031-8 8-8 8 3.582031 8 8zm0 0"/><path d="m271.785156 327.671875.429688 16c8.277344-.222656 16.359375-.566406 24.25-1.03125l-.929688-16c-7.710937.464844-15.648437.808594-23.75 1.03125zm0 0"/><path d="m215.703125 343.398438c7.898437.296874 16 .488281 24.226563.570312l.140624-16c-8.078124-.082031-16.003906-.265625-23.773437-.5625zm0 0"/><path d="m303.457031 358.160156 1.085938 15.960938c11.199219-.800782 22.089843-1.777344 32.394531-2.992188l-1.875-15.890625c-10.054688 1.1875-20.664062 2.167969-31.605469 2.921875zm0 0"/><path d="m328 464h16v16h-16zm0 0"/><path d="m232 464h16v16h-16zm0 0"/><path d="m280 464h16v16h-16zm0 0"/><path d="m184 464h16v16h-16zm0 0"/><path d="m136 464h16v16h-16zm0 0"/><path d="m376 448h16v32h-16zm0 0"/><path d="m88 448h16v32h-16zm0 0"/></svg>